<svg width="512" height="512" viewBox="0 0 512 512" fill="none" xmlns="http://www.w3.org/2000/svg">
<g clip-path="url(#clip0_2_7)">
<path d="M202.762 339.536C219.286 349.086 238.271 353.52 257.316 352.279C276.361 351.038 294.61 344.176 309.755 332.562C324.9 320.948 336.26 305.104 342.399 287.033C348.538 268.962 349.18 249.476 344.243 231.04C339.306 212.604 329.013 196.047 314.665 183.461C300.317 170.876 282.559 162.829 263.637 160.337C244.715 157.846 225.479 161.022 208.362 169.464C191.245 177.906 177.017 191.235 167.476 207.764C154.688 229.919 151.222 256.245 157.839 280.955C164.455 305.665 180.614 326.736 202.762 339.536Z" fill="#27EA93"/>
<path d="M362.882 93.9826C370.575 94.8099 378.34 93.3363 385.195 89.7483C392.05 86.1603 397.687 80.6193 401.392 73.8265C405.097 67.0337 406.703 59.2945 406.007 51.5884C405.312 43.8823 402.346 36.5558 397.485 30.5361C392.624 24.5164 386.086 20.0742 378.699 17.7716C371.312 15.4691 363.408 15.4097 355.988 17.601C348.567 19.7923 341.963 24.1358 337.012 30.0818C332.061 36.0278 328.986 43.3089 328.174 51.0036C327.629 56.105 328.094 61.2638 329.544 66.1852C330.993 71.1066 333.398 75.6942 336.621 79.6857C339.844 83.6771 343.823 86.9943 348.329 89.4474C352.835 91.9006 357.78 93.4417 362.882 93.9826Z" fill="#27EA93"/>
<path d="M130.928 495.775C138.622 496.603 146.387 495.129 153.242 491.541C160.097 487.953 165.734 482.412 169.439 475.619C173.144 468.826 174.75 461.087 174.054 453.381C173.359 445.675 170.393 438.349 165.532 432.329C160.671 426.309 154.133 421.867 146.746 419.564C139.359 417.262 131.455 417.202 124.035 419.394C116.614 421.585 110.01 425.929 105.059 431.875C100.108 437.821 97.0325 445.102 96.2213 452.796C95.6759 457.898 96.1411 463.057 97.5905 467.978C99.0398 472.899 101.445 477.487 104.668 481.478C107.891 485.47 111.87 488.787 116.376 491.24C120.881 493.693 125.827 495.234 130.928 495.775Z" fill="#27EA93"/>
</g>
<defs>
<clipPath id="clip0_2_7">
<rect width="320" height="480" fill="white" transform="translate(96 16)"/>
</clipPath>
</defs>
</svg>
